<?xml version="1.0" encoding="iso-8859-1"?>
<!-- Generator: Adobe Illustrator 18.0.0, SVG Export Plug-In . SVG Version: 6.00 Build 0)  -->
<!DOCTYPE svg PUBLIC "-//W3C//DTD SVG 1.1//EN" "http://www.w3.org/Graphics/SVG/1.1/DTD/svg11.dtd">
<svg version="1.1" id="Capa_1" xmlns="http://www.w3.org/2000/svg" xmlns:xlink="http://www.w3.org/1999/xlink" x="0px" y="0px"
	 viewBox="0 0 212 212" style="enable-background:new 0 0 212 212;" xml:space="preserve">
<path d="M0,128.023v21h31.501V180.5h31.476V212h21v-31.5H95.5V212h21v-31.5h11.523V212h21v-31.5h31.476v-31.477H212v-21h-31.501
	V116.5H212v-21h-31.501V83.977H212v-21h-31.501V31.5h-31.476V0h-21v31.5H116.5V0h-21v31.5H83.977V0h-21v31.5H31.501v31.477H0v21
	h31.501V95.5H0v21h31.501v11.523H0z M66.475,66.475h79.051v79.051H66.475V66.475z"/>
</svg>
